<svg xmlns="http://www.w3.org/2000/svg" xmlns:xlink="http://www.w3.org/1999/xlink" version="1.1" x="0px" y="0px" viewBox="-58.93 -75.46 100 128.05" enable-background="new -58.93 -75.46 100 128.05" xml:space="preserve"><g><g><g><path fill="#000000" d="M40.702,41.604c0.202,1.37-1.802,2.723-4.453,3.016l-70.99,7.809c-2.649,0.297-5.01,0.171-5.248-0.276     c-0.235-0.451,1.731-1.146,4.368-1.545l71.166-10.763C38.182,39.445,40.503,40.237,40.702,41.604z"></path></g></g></g><g><path fill="#000000" d="M-42.49,50.407c-0.53,0-1.053-0.171-1.481-0.502c-0.513-0.392-0.849-0.972-0.934-1.614L-58.909-58.683   c-0.171-1.312,0.735-2.521,2.041-2.723c0.216-0.034,21.705-3.369,40.963-6.991c16.155-3.037,32.883-6.961,33.054-7   c0.642-0.148,1.322-0.037,1.874,0.325c0.559,0.358,0.944,0.925,1.072,1.573l20.93,105.769c0.25,1.268-0.535,2.511-1.788,2.829   c-0.195,0.053-19.674,5.013-34.98,7.852c-22.999,4.267-46.187,7.405-46.418,7.438C-42.274,50.4-42.383,50.407-42.49,50.407z    M-53.771-56.961l13.375,102.185c6.522-0.915,25.207-3.624,43.759-7.062c12.115-2.245,26.894-5.841,32.429-7.22L15.802-70.086   c-5.271,1.208-18.209,4.11-30.81,6.479C-30.604-60.678-47.65-57.933-53.771-56.961z"></path></g><g><path fill="#000000" d="M-44.172-35.384c-0.625,0-1.167-0.465-1.25-1.104c-0.088-0.69,0.402-1.322,1.094-1.412   c0.454-0.056,45.54-5.836,56.961-12.364c0.599-0.346,1.375-0.139,1.722,0.467s0.135,1.375-0.471,1.722   C2.03-41.297-42.136-35.635-44.01-35.396C-44.067-35.386-44.119-35.384-44.172-35.384z"></path></g><g><path fill="#000000" d="M-42.455-23.562c-0.307,0-0.618-0.107-0.849-0.312c-0.273-0.241-0.449-0.582-0.449-0.945   c0-0.635,0.511-1.176,1.144-1.255c2.516-0.325,25.086-3.287,41.828-7.332c0.68-0.163,1.36,0.253,1.524,0.93   c0.164,0.678-0.254,1.359-0.93,1.522c-16.878,4.077-39.569,7.054-42.102,7.381C-42.345-23.565-42.398-23.562-42.455-23.562z"></path></g></svg>