<svg xmlns="http://www.w3.org/2000/svg" xmlns:xlink="http://www.w3.org/1999/xlink" version="1.1" x="0px" y="0px" viewBox="0 0 100 100" enable-background="new 0 0 100 100" xml:space="preserve"><path d="M65,18.3l2.2-3.7c0.5-0.9,1.6-1.2,2.5-0.7c0.9,0.5,1.2,1.6,0.7,2.5l-2.2,3.7c-0.3,0.6-1,0.9-1.6,0.9c-0.3,0-0.6-0.1-0.9-0.2  C64.8,20.3,64.5,19.2,65,18.3z M32.6,20.1c0.3,0.6,1,0.9,1.6,0.9c0.3,0,0.6-0.1,0.9-0.2c0.9-0.5,1.2-1.6,0.7-2.5l-2.2-3.7  c-0.5-0.9-1.6-1.2-2.5-0.7c-0.9,0.5-1.2,1.6-0.7,2.5L32.6,20.1z M50.4,16.7c1,0,1.8-0.8,1.8-1.8v-4.3c0-1-0.8-1.8-1.8-1.8  c-1,0-1.8,0.8-1.8,1.8v4.3C48.5,15.9,49.3,16.7,50.4,16.7z M18,45.4h-4.3c-1,0-1.8,0.8-1.8,1.8c0,1,0.8,1.8,1.8,1.8H18  c1,0,1.8-0.8,1.8-1.8C19.8,46.2,19,45.4,18,45.4z M87.1,45.4h-4.3c-1,0-1.8,0.8-1.8,1.8c0,1,0.8,1.8,1.8,1.8h4.3  c1,0,1.8-0.8,1.8-1.8C88.9,46.2,88.1,45.4,87.1,45.4z M83.8,28c-0.5-0.9-1.6-1.2-2.5-0.7l-3.7,2.2c-0.9,0.5-1.2,1.6-0.7,2.5  c0.3,0.6,1,0.9,1.6,0.9c0.3,0,0.6-0.1,0.9-0.2l3.7-2.2C84,30,84.3,28.9,83.8,28z M74,47c0,4.1-1.1,8.1-3.1,11.7  c-0.1,0.3-0.2,0.5-0.4,0.7l-0.2,0.3c-0.8,1.2-1.6,2.4-2.6,3.4c-3.5,4.9-5.3,9.1-5.2,11.8c0,0,0,0.1,0,0.1c0,0.2,0.1,0.5,0.1,0.8v8.6  c0,3.8-3.1,6.8-6.8,6.8H44.7c-3.8,0-6.8-3.1-6.8-6.8v-8.6c0-0.2,0-0.3,0-0.5c0-0.1,0-0.3,0-0.4c0.1-2.6-1.7-6.7-5-11.5  c-1.1-1.2-2.2-2.5-3-4c-0.1-0.2-0.2-0.3-0.3-0.5c-2.1-3.6-3.2-7.7-3.2-11.8c0-13.1,10.7-23.8,23.8-23.8C63.3,23.2,74,33.9,74,47z   M58.9,76.8H41.6v3.4h17.3V76.8z M58.9,84.6l0-0.7H41.6l0,0.7c0.2,1.6,1.5,2.8,3.1,2.8h11.1C57.4,87.4,58.7,86.2,58.9,84.6z   M70.3,47c0-11.1-9-20.1-20.1-20.1c-11.1,0-20.1,9-20.1,20.1c0,3.6,1,7.1,2.8,10.2c0,0,0,0,0,0c0,0,0,0,0,0.1  c0.8,1.3,1.7,2.5,2.7,3.6c0.1,0.1,0.1,0.1,0.2,0.2c3.3,4.7,5.2,8.7,5.7,12H59c0.6-4.1,3.4-8.8,5.9-12.3c0-0.1,0.1-0.1,0.2-0.2  c0.9-0.9,1.7-2,2.3-3.1c0-0.1,0.1-0.1,0.1-0.2c0-0.1,0.1-0.1,0.1-0.2C69.4,54.1,70.3,50.6,70.3,47z M23.2,29.5l-3.7-2.2  c-0.9-0.5-2-0.2-2.5,0.7c-0.5,0.9-0.2,2,0.7,2.5l3.7,2.2c0.3,0.2,0.6,0.2,0.9,0.2c0.6,0,1.3-0.3,1.6-0.9  C24.4,31.1,24.1,30,23.2,29.5z"></path></svg>