<svg xmlns="http://www.w3.org/2000/svg" xmlns:xlink="http://www.w3.org/1999/xlink" version="1.1" x="0px" y="0px" viewBox="0 0 100 100" enable-background="new 0 0 100 100" xml:space="preserve"><path d="M50,23.8c-12.4,0-22.5,10.1-22.5,22.5c0,4,1.1,7.9,3.1,11.3c0,0.1,0.1,0.2,0.1,0.2l0,0c0.9,1.5,1.9,2.8,3,3.9  c2.5,3.6,5.5,8.6,5.3,12.4c0,0.1,0,0.2,0,0.2c0,0.2,0,0.4,0,0.6v8.5c0,3.1,2.5,5.6,5.6,5.6h11c3.1,0,5.6-2.5,5.6-5.6V75  c0-0.2,0-0.5-0.1-0.7c0,0,0-0.1,0-0.1c-0.1-3,1.8-7.5,5.5-12.6c1-1.1,1.9-2.2,2.6-3.4l0.3-0.4c0.1-0.1,0.1-0.2,0.1-0.3  c2-3.4,3-7.3,3-11.2C72.6,34,62.5,23.8,50,23.8z M59.9,75v6.6c-0.1-0.1-0.3-0.2-0.4-0.2H40.2V75c0-0.1,0-0.1,0-0.2h19.7  C59.9,74.9,59.9,75,59.9,75z M55.6,87.9h-11c-2.4,0-4.3-1.9-4.3-4.3v-0.9h19.3c0.2,0,0.3-0.1,0.4-0.2v1.1C59.9,86,58,87.9,55.6,87.9  z M68.4,57.2c0,0.1-0.1,0.1-0.1,0.2l-0.2,0.2c-0.7,1.2-1.5,2.3-2.5,3.3c-2.6,3.6-5.6,8.7-5.7,12.8H40.2c-0.2-4-3.1-8.9-5.6-12.6  c-1.1-1.1-2-2.4-2.9-3.8c0,0,0-0.1,0-0.1c-2-3.3-3-7-3-10.8c0-11.7,9.6-21.3,21.3-21.3s21.3,9.6,21.3,21.3  C71.3,50.2,70.3,53.9,68.4,57.2z M49.6,14.3V10c0-0.3,0.3-0.6,0.6-0.6s0.6,0.3,0.6,0.6v4.3c0,0.3-0.3,0.6-0.6,0.6  S49.6,14.7,49.6,14.3z M31.4,15.2c-0.2-0.3-0.1-0.7,0.2-0.8c0.3-0.2,0.7-0.1,0.8,0.2l2.2,3.7c0.2,0.3,0.1,0.7-0.2,0.8  c-0.1,0.1-0.2,0.1-0.3,0.1c-0.2,0-0.4-0.1-0.5-0.3L31.4,15.2z M22.7,30.8c-0.1,0.2-0.3,0.3-0.5,0.3c-0.1,0-0.2,0-0.3-0.1l-3.7-2.2  c-0.3-0.2-0.4-0.5-0.2-0.8c0.2-0.3,0.5-0.4,0.8-0.2l3.7,2.2C22.8,30.1,22.9,30.5,22.7,30.8z M18.5,46.6c0,0.3-0.3,0.6-0.6,0.6h-4.3  c-0.3,0-0.6-0.3-0.6-0.6c0-0.3,0.3-0.6,0.6-0.6h4.3C18.2,46,18.5,46.3,18.5,46.6z M87.4,46.6c0,0.3-0.3,0.6-0.6,0.6h-4.3  c-0.3,0-0.6-0.3-0.6-0.6c0-0.3,0.3-0.6,0.6-0.6h4.3C87.1,46,87.4,46.3,87.4,46.6z M82.2,28.9L78.5,31c-0.1,0.1-0.2,0.1-0.3,0.1  c-0.2,0-0.4-0.1-0.5-0.3c-0.2-0.3-0.1-0.7,0.2-0.8l3.7-2.2c0.3-0.2,0.7-0.1,0.8,0.2C82.6,28.3,82.5,28.7,82.2,28.9z M65.8,18.3  l2.2-3.7c0.2-0.3,0.5-0.4,0.8-0.2c0.3,0.2,0.4,0.5,0.2,0.8L66.9,19c-0.1,0.2-0.3,0.3-0.5,0.3c-0.1,0-0.2,0-0.3-0.1  C65.7,19,65.6,18.6,65.8,18.3z"></path></svg>