<svg xmlns="http://www.w3.org/2000/svg" xmlns:xlink="http://www.w3.org/1999/xlink" version="1.1" x="0px" y="0px" viewBox="0 0 100 100" enable-background="new 0 0 100 100" xml:space="preserve"><path d="M82.6,31.2l-6.9-6.9c-1.8-1.8-4.9-1.8-6.8,0L40.3,53l-9.8-9.8c-1.1-1.1-2.5-1.7-4-1.7c-1.5,0-2.9,0.6-4,1.7L17,48.7  c-1.1,1.1-1.7,2.5-1.7,4s0.6,2.9,1.7,4l20.1,20.1c0.9,0.9,2.1,1.4,3.4,1.4s2.5-0.5,3.4-1.4L82.6,38C84.5,36.1,84.5,33.1,82.6,31.2z   M81.7,37.1L43,75.9c-1.3,1.3-3.7,1.3-5,0L17.9,55.8c-0.8-0.8-1.3-2-1.3-3.1s0.5-2.3,1.3-3.1l5.5-5.5c0.8-0.8,2-1.3,3.1-1.3  c1.2,0,2.3,0.5,3.1,1.3l10.2,10.2c0.2,0.2,0.6,0.2,0.9,0l29.1-29.1c1.3-1.3,3.7-1.3,5,0l6.9,6.9C83.1,33.5,83.1,35.7,81.7,37.1z"></path></svg>